<?xml version="1.0" encoding="UTF-8" standalone="no"?>
<!-- Created with Inkscape (http://www.inkscape.org/) -->

<svg
   xmlns:ns1="http://www.iki.fi/pav/software/textext/"
   xmlns:dc="http://purl.org/dc/elements/1.1/"
   xmlns:cc="http://creativecommons.org/ns#"
   xmlns:rdf="http://www.w3.org/1999/02/22-rdf-syntax-ns#"
   xmlns:svg="http://www.w3.org/2000/svg"
   xmlns="http://www.w3.org/2000/svg"
   xmlns:sodipodi="http://sodipodi.sourceforge.net/DTD/sodipodi-0.dtd"
   xmlns:inkscape="http://www.inkscape.org/namespaces/inkscape"
   version="1.1"
   id="svg2"
   xml:space="preserve"
   width="953.97308"
   height="411.83493"
   viewBox="0 0 953.97308 411.83493"
   sodipodi:docname="proof-encoding-paths.svg"
   inkscape:version="0.92.3 (2405546, 2018-03-11)"><sodipodi:namedview
     pagecolor="#ffffff"
     bordercolor="#666666"
     borderopacity="1"
     objecttolerance="10"
     gridtolerance="10"
     guidetolerance="10"
     inkscape:pageopacity="0"
     inkscape:pageshadow="2"
     inkscape:window-width="1853"
     inkscape:window-height="1025"
     id="namedview4"
     showgrid="false"
     inkscape:zoom="1.1107227"
     inkscape:cx="476.98654"
     inkscape:cy="205.91747"
     inkscape:window-x="67"
     inkscape:window-y="27"
     inkscape:window-maximized="1"
     inkscape:current-layer="g10" /><metadata
     id="metadata8"><rdf:RDF><cc:Work
         rdf:about=""><dc:format>image/svg+xml</dc:format><dc:type
           rdf:resource="http://purl.org/dc/dcmitype/StillImage" /><dc:title></dc:title></cc:Work></rdf:RDF></metadata><defs
     id="defs6" /><g
     id="g10"
     inkscape:groupmode="layer"
     inkscape:label="proof-encoding-paths"
     transform="matrix(1.3333333,0,0,1.3333333,0,1.0295873e-5)"><g
       id="g12"><path
         d="m 169.809,205 c -41.434,28.988 -93.95,57.094 -89.614,75.887 4.336,18.789 37.645,6.066 83.11,-18.793 106.699,-58.332 164.324,-100.367 277.519,-80.942 66.086,11.344 189.477,101.825 169.11,64.321 C 523.203,85.762 280.25,132.945 169.809,205 Z"
         style="fill:#f04439;fill-opacity:0.11335;fill-rule:nonzero;stroke:none"
         id="path14"
         inkscape:connector-curvature="0" /><path
         d="m 36.109,145.742 c 8.168,31.891 28.188,22.403 54.203,23.125 26.02,0.723 171.282,0 177.786,-0.722 95.261,3.957 176.656,-76.297 261.617,-125.028 0,0 23.847,-14.453 4.336,-18.066 -19.512,-3.613 -9.395,-14.457 -51.313,3.613 -41.914,18.066 -84.554,46.973 -125.027,71.547 -40.469,24.57 -59.805,36.195 -106.957,37.578 -50.473,1.481 -223.418,-26.312 -214.645,7.953 z"
         style="fill:#3e8380;fill-opacity:0.09319901;fill-rule:nonzero;stroke:none"
         id="path16"
         inkscape:connector-curvature="0" /><path
         d="m 678.449,155.809 -81.414,0.617"
         style="fill:#cd8282;fill-opacity:0.17884103;fill-rule:nonzero;stroke:none"
         id="path18"
         inkscape:connector-curvature="0" /><g
         id="g20"
         transform="scale(1,-1)"><path
           d="m 668.23,-156.32 -74.773,-0.618"
           style="fill:none;stroke:#f0c139;stroke-width:2.41199994;stroke-linecap:butt;stroke-linejoin:round;stroke-miterlimit:10;stroke-dasharray:none;stroke-opacity:0.98488698"
           id="path22"
           inkscape:connector-curvature="0" /></g><g
         id="g24"
         transform="scale(-1)"><path
           d="m -31.273,-154.949 c 0,2.836 -2.297,5.137 -5.133,5.137 -2.836,0 -5.137,-2.301 -5.137,-5.137 0,-2.836 2.301,-5.133 5.137,-5.133 2.836,0 5.133,2.297 5.133,5.133 z"
           style="fill:#ffffff;fill-opacity:1;fill-rule:nonzero;stroke:#000000;stroke-width:2.90443206;stroke-linecap:butt;stroke-linejoin:miter;stroke-miterlimit:10;stroke-dasharray:none;stroke-opacity:1"
           id="path26"
           inkscape:connector-curvature="0" /></g><g
         id="g28"
         transform="scale(-1)"><path
           d="m -482.457,-156.117 c 0,2.836 -2.297,5.133 -5.133,5.133 -2.836,0 -5.137,-2.297 -5.137,-5.133 0,-2.836 2.301,-5.137 5.137,-5.137 2.836,0 5.133,2.301 5.133,5.137 z"
           style="fill:#ffffff;fill-opacity:1;fill-rule:nonzero;stroke:#000000;stroke-width:2.90443206;stroke-linecap:butt;stroke-linejoin:miter;stroke-miterlimit:10;stroke-dasharray:none;stroke-opacity:1"
           id="path30"
           inkscape:connector-curvature="0" /></g><g
         id="g32"
         transform="scale(-1)"><path
           d="m -678.109,-155.914 c 0,2.836 -2.297,5.133 -5.133,5.133 -2.836,0 -5.137,-2.297 -5.137,-5.133 0,-2.836 2.301,-5.137 5.137,-5.137 2.836,0 5.133,2.301 5.133,5.137 z"
           style="fill:#ffffff;fill-opacity:1;fill-rule:nonzero;stroke:#000000;stroke-width:2.90443206;stroke-linecap:butt;stroke-linejoin:miter;stroke-miterlimit:10;stroke-dasharray:none;stroke-opacity:1"
           id="path34"
           inkscape:connector-curvature="0" /></g><g
         id="g36"
         transform="scale(-1)"><path
           d="m -583.359,-157.922 c 0,2.832 -2.301,5.133 -5.133,5.133 -2.836,0 -5.137,-2.301 -5.137,-5.133 0,-2.836 2.301,-5.137 5.137,-5.137 2.832,0 5.133,2.301 5.133,5.137 z"
           style="fill:#ffffff;fill-opacity:1;fill-rule:nonzero;stroke:#000000;stroke-width:2.90443206;stroke-linecap:butt;stroke-linejoin:miter;stroke-miterlimit:10;stroke-dasharray:none;stroke-opacity:1"
           id="path38"
           inkscape:connector-curvature="0" /></g><g
         id="g40"
         transform="scale(1,-1)"><path
           d="m 41.617,-154.395 h 88.828"
           style="fill:none;stroke:#3a7c0e;stroke-width:2.41199994;stroke-linecap:butt;stroke-linejoin:round;stroke-miterlimit:10;stroke-dasharray:none;stroke-opacity:0.98488698"
           id="path42"
           inkscape:connector-curvature="0" /></g><path
         d="m 580.133,156.305 -81.414,0.617"
         style="fill:#cd8282;fill-opacity:0.17884103;fill-rule:nonzero;stroke:none"
         id="path44"
         inkscape:connector-curvature="0" /><g
         id="g46"
         transform="scale(1,-1)"><path
           d="m 574.512,-156.816 -79.367,-0.106"
           style="fill:none;stroke:#000000;stroke-width:2.41199994;stroke-linecap:butt;stroke-linejoin:round;stroke-miterlimit:10;stroke-dasharray:none;stroke-opacity:0.98488698"
           id="path48"
           inkscape:connector-curvature="0" /></g><path
         d="m 582.527,156.719 -11.804,-3.93 2.566,4.191 -3.453,5.204"
         style="fill:#000000;fill-opacity:1;fill-rule:nonzero;stroke:none"
         id="path50"
         inkscape:connector-curvature="0" /><path
         d="m 676.137,155.855 -11.805,-3.933 2.563,4.195 -3.45,5.199"
         style="fill:#f0c139;fill-opacity:1;fill-rule:nonzero;stroke:none"
         id="path52"
         inkscape:connector-curvature="0" /><g
         id="g54"><path
           d="m 135.773,154.488 -11.804,-3.933 2.566,4.195 -3.453,5.199"
           style="fill:#3e8213;fill-opacity:1;fill-rule:nonzero;stroke:#3a7c0e;stroke-width:1;stroke-linecap:butt;stroke-linejoin:miter;stroke-miterlimit:4;stroke-dasharray:none;stroke-opacity:1"
           id="path56"
           inkscape:connector-curvature="0" /></g><g
         id="g58"
         transform="scale(1,-1)"><path
           d="m 687.578,-156.672 20.113,-0.109"
           style="fill:none;stroke:#000000;stroke-width:2.41199994;stroke-linecap:butt;stroke-linejoin:round;stroke-miterlimit:10;stroke-dasharray:none;stroke-opacity:0.98488698"
           id="path60"
           inkscape:connector-curvature="0" /></g><path
         d="m 715.48,156.219 -11.804,-3.934 2.566,4.195 -3.457,5.2"
         style="fill:#000000;fill-opacity:1;fill-rule:nonzero;stroke:none"
         id="path62"
         inkscape:connector-curvature="0" /><g
         id="g64"
         transform="scale(-1)"><path
           d="m -137.41,-154.617 c 0,2.836 -2.297,5.137 -5.133,5.137 -2.836,0 -5.137,-2.301 -5.137,-5.137 0,-2.836 2.301,-5.133 5.137,-5.133 2.836,0 5.133,2.297 5.133,5.133 z"
           style="fill:#ffffff;fill-opacity:1;fill-rule:nonzero;stroke:#000000;stroke-width:2.90443206;stroke-linecap:butt;stroke-linejoin:miter;stroke-miterlimit:10;stroke-dasharray:none;stroke-opacity:1"
           id="path66"
           inkscape:connector-curvature="0" /></g><g
         id="g68"
         transform="scale(-1)"><path
           d="m -238.312,-156.418 c 0,2.832 -2.301,5.129 -5.133,5.129 -2.836,0 -5.137,-2.297 -5.137,-5.129 0,-2.836 2.301,-5.137 5.137,-5.137 2.832,0 5.133,2.301 5.133,5.137 z"
           style="fill:#ffffff;fill-opacity:1;fill-rule:nonzero;stroke:#000000;stroke-width:2.90443206;stroke-linecap:butt;stroke-linejoin:miter;stroke-miterlimit:10;stroke-dasharray:none;stroke-opacity:1"
           id="path70"
           inkscape:connector-curvature="0" /></g><path
         d="m 235.086,154.801 -81.414,0.617"
         style="fill:#cd8282;fill-opacity:0.17884103;fill-rule:nonzero;stroke:none"
         id="path72"
         inkscape:connector-curvature="0" /><g
         id="g74"
         transform="scale(1,-1)"><path
           d="m 229.465,-155.312 -79.371,-0.106"
           style="fill:none;stroke:#000000;stroke-width:2.41199994;stroke-linecap:butt;stroke-linejoin:round;stroke-miterlimit:10;stroke-dasharray:none;stroke-opacity:0.98488698"
           id="path76"
           inkscape:connector-curvature="0" /></g><path
         d="m 237.48,155.215 -11.804,-3.926 2.566,4.188 -3.453,5.203"
         style="fill:#000000;fill-opacity:1;fill-rule:nonzero;stroke:none"
         id="path78"
         inkscape:connector-curvature="0" /><g
         id="g80"
         transform="scale(1,-1)"><path
           d="m 306.883,-156.488 -60.461,0.406"
           style="fill:none;stroke:#000000;stroke-width:3.54975009;stroke-linecap:butt;stroke-linejoin:round;stroke-miterlimit:4;stroke-dasharray:3.54975, 7.0995;stroke-dashoffset:0;stroke-opacity:1"
           id="path82"
           inkscape:connector-curvature="0" /></g><g
         id="g84"
         transform="scale(1,-1)"><path
           d="m 0.008,-154.699 20.109,-0.106"
           style="fill:none;stroke:#000000;stroke-width:2.41199994;stroke-linecap:butt;stroke-linejoin:round;stroke-miterlimit:10;stroke-dasharray:none;stroke-opacity:0.98488698"
           id="path86"
           inkscape:connector-curvature="0" /></g><path
         d="m 27.906,154.246 -11.804,-3.934 2.566,4.196 -3.457,5.199"
         style="fill:#000000;fill-opacity:1;fill-rule:nonzero;stroke:none"
         id="path88"
         inkscape:connector-curvature="0" /><g
         id="g90"
         transform="scale(-1)"><path
           d="m -401.488,-157.051 c 0,2.832 -2.301,5.133 -5.133,5.133 -2.836,0 -5.137,-2.301 -5.137,-5.133 0,-2.836 2.301,-5.137 5.137,-5.137 2.832,0 5.133,2.301 5.133,5.137 z"
           style="fill:#ffffff;fill-opacity:1;fill-rule:nonzero;stroke:#000000;stroke-width:2.90443206;stroke-linecap:butt;stroke-linejoin:miter;stroke-miterlimit:10;stroke-dasharray:none;stroke-opacity:1"
           id="path92"
           inkscape:connector-curvature="0" /></g><path
         d="m 398.262,155.434 -81.414,0.617"
         style="fill:#cd8282;fill-opacity:0.17884103;fill-rule:nonzero;stroke:none"
         id="path94"
         inkscape:connector-curvature="0" /><g
         id="g96"
         transform="scale(1,-1)"><path
           d="m 392.641,-155.945 -79.371,-0.106"
           style="fill:none;stroke:#000000;stroke-width:2.41199994;stroke-linecap:butt;stroke-linejoin:round;stroke-miterlimit:10;stroke-dasharray:none;stroke-opacity:0.98488698"
           id="path98"
           inkscape:connector-curvature="0" /></g><path
         d="m 400.656,155.848 -11.804,-3.93 2.566,4.191 -3.453,5.203"
         style="fill:#000000;fill-opacity:1;fill-rule:nonzero;stroke:none"
         id="path100"
         inkscape:connector-curvature="0" /><g
         id="g102"
         transform="scale(-1)"><path
           d="m -301.891,-156.539 c 0,2.832 -2.3,5.133 -5.132,5.133 -2.836,0 -5.137,-2.301 -5.137,-5.133 0,-2.836 2.301,-5.137 5.137,-5.137 2.832,0 5.132,2.301 5.132,5.137 z"
           style="fill:#ffffff;fill-opacity:1;fill-rule:nonzero;stroke:#000000;stroke-width:2.90443206;stroke-linecap:butt;stroke-linejoin:miter;stroke-miterlimit:10;stroke-dasharray:none;stroke-opacity:1"
           id="path104"
           inkscape:connector-curvature="0" /></g><g
         id="g106"
         transform="scale(1,-1)"><path
           d="m 478.281,-156.785 -60.461,0.406"
           style="fill:none;stroke:#000000;stroke-width:3.54975009;stroke-linecap:butt;stroke-linejoin:round;stroke-miterlimit:4;stroke-dasharray:3.54975, 7.0995;stroke-dashoffset:0;stroke-opacity:1"
           id="path108"
           inkscape:connector-curvature="0" /></g><g
         id="g110"
         transform="matrix(-1,0.56982,-0.56982,-1,0,0)"><path
           d="m -244.911,-248.508 c -0.003,2.459 -2.001,4.457 -4.462,4.457 -2.463,-0.001 -4.463,-1.996 -4.463,-4.457 0.001,-2.464 2.001,-4.465 4.465,-4.464 2.461,0 4.459,1.998 4.46,4.464 z"
           style="fill:#ffffff;fill-opacity:1;fill-rule:nonzero;stroke:#000000;stroke-width:2.52349997;stroke-linecap:butt;stroke-linejoin:miter;stroke-miterlimit:10;stroke-dasharray:none;stroke-opacity:1"
           id="path112"
           inkscape:connector-curvature="0" /></g><path
         d="m 382.914,109.145 -70.43,40.843"
         style="fill:#cd8282;fill-opacity:0.17884103;fill-rule:nonzero;stroke:none"
         id="path114"
         inkscape:connector-curvature="0" /><g
         id="g116"
         transform="matrix(1,-0.56982,-0.56982,-1,0,0)"><path
           d="m 237.224,-247.546 -68.959,-0.093"
           style="fill:none;stroke:#000000;stroke-width:2.09565306;stroke-linecap:butt;stroke-linejoin:round;stroke-miterlimit:10;stroke-dasharray:none;stroke-opacity:0.98488698"
           id="path118"
           inkscape:connector-curvature="0" /></g><path
         d="m 385.199,108.32 -12.199,2.43 4.301,2.371 -0.422,6.231"
         style="fill:#000000;fill-opacity:1;fill-rule:nonzero;stroke:none"
         id="path120"
         inkscape:connector-curvature="0" /><g
         id="g122"
         transform="matrix(1,-0.56982,-0.56982,-1,0,0)"><path
           d="m 304.49,-248.567 -52.53,0.351"
           style="fill:none;stroke:#000000;stroke-width:3.08418107;stroke-linecap:butt;stroke-linejoin:round;stroke-miterlimit:4;stroke-dasharray:3.084181, 6.168361;stroke-dashoffset:0;stroke-opacity:1"
           id="path124"
           inkscape:connector-curvature="0" /></g><g
         id="g126"
         transform="matrix(-1,0.56982,-0.56982,-1,0,0)"><path
           d="m -386.685,-249.056 c -0.003,2.46 -2.001,4.458 -4.462,4.458 -2.463,-0.002 -4.462,-2 -4.462,-4.461 0,-2.461 2,-4.462 4.464,-4.46 2.461,0 4.459,1.998 4.46,4.463 z"
           style="fill:#ffffff;fill-opacity:1;fill-rule:nonzero;stroke:#000000;stroke-width:2.52349997;stroke-linecap:butt;stroke-linejoin:miter;stroke-miterlimit:10;stroke-dasharray:none;stroke-opacity:1"
           id="path128"
           inkscape:connector-curvature="0" /></g><g
         id="g130"
         transform="matrix(1,-0.56982,-0.56982,-1,0,0)"><path
           d="m 378.997,-248.097 -68.959,-0.092"
           style="fill:none;stroke:#f0c139;stroke-width:2.09565306;stroke-linecap:butt;stroke-linejoin:round;stroke-miterlimit:10;stroke-dasharray:none;stroke-opacity:1"
           id="path132"
           inkscape:connector-curvature="0" /></g><path
         d="m 527.285,28.082 -12.203,2.43 4.305,2.371 -0.422,6.23"
         style="fill:#f0c139;fill-opacity:1;fill-rule:nonzero;stroke:none"
         id="path134"
         inkscape:connector-curvature="0" /><g
         id="g136"
         transform="matrix(-1,0.56982,-0.56982,-1,0,0)"><path
           d="m -300.151,-248.614 c 0,2.461 -2,4.462 -4.461,4.462 -2.464,-0.002 -4.462,-2 -4.462,-4.461 -10e-4,-2.465 1.997,-4.463 4.462,-4.465 2.461,0 4.458,2.001 4.461,4.464 z"
           style="fill:#ffffff;fill-opacity:1;fill-rule:nonzero;stroke:#000000;stroke-width:2.52349997;stroke-linecap:butt;stroke-linejoin:miter;stroke-miterlimit:10;stroke-dasharray:none;stroke-opacity:1"
           id="path138"
           inkscape:connector-curvature="0" /></g><path
         d="m 308.242,132.41 c 0,-1.574 -0.769,-2.027 -1.262,-2.027 -0.722,0 -1.445,0.765 -1.445,1.398 0,0.36 0.137,0.539 0.453,0.856 0.629,0.586 0.992,1.308 0.992,2.343 0,1.219 -1.757,7.797 -5.093,7.797 -1.489,0 -2.164,-0.988 -2.164,-2.523 0,-1.578 0.808,-3.695 1.668,-6.086 0.222,-0.492 0.359,-0.898 0.359,-1.441 0,-1.262 -0.902,-2.344 -2.344,-2.344 -2.703,0 -3.785,4.191 -3.785,4.418 0,0.316 0.27,0.316 0.313,0.316 0.316,0 0.316,-0.09 0.453,-0.543 0.855,-2.883 2.074,-3.558 2.929,-3.558 0.227,0 0.723,0 0.723,0.898 0,0.723 -0.316,1.535 -0.496,2.031 -1.266,3.336 -1.625,4.641 -1.625,5.903 0,3.113 2.523,3.562 3.832,3.562 4.824,0 6.492,-9.512 6.492,-11 z"
         style="fill:#000000;fill-opacity:1;fill-rule:nonzero;stroke:none"
         id="path140"
         inkscape:connector-curvature="0" /><path
         d="M 174.086,289.473 92.688,291.07"
         style="fill:#cd8282;fill-opacity:0.17884103;fill-rule:nonzero;stroke:none"
         id="path142"
         inkscape:connector-curvature="0" /><g
         id="g144"
         transform="matrix(-1,0.0120351,-0.0120351,-1,0,0)"><path
           d="m -73.001,-290.382 c 0.001,2.832 -2.3,5.132 -5.132,5.133 -2.836,-0.003 -5.137,-2.3 -5.134,-5.132 -0.001,-2.836 2.3,-5.136 5.136,-5.137 2.832,-0.002 5.133,2.3 5.13,5.136 z"
           style="fill:#ffffff;fill-opacity:1;fill-rule:nonzero;stroke:#000000;stroke-width:2.90422201;stroke-linecap:butt;stroke-linejoin:miter;stroke-miterlimit:10;stroke-dasharray:none;stroke-opacity:1"
           id="path146"
           inkscape:connector-curvature="0" /></g><g
         id="g148"
         transform="matrix(-1,0.585873,-0.585873,-1,0,0)"><path
           d="m -14.396,-251.571 c 0.002,2.443 -1.985,4.427 -4.431,4.428 -2.445,0 -4.43,-1.986 -4.429,-4.427 0.001,-2.449 1.985,-4.435 4.433,-4.434 2.442,0 4.428,1.984 4.427,4.433 z"
           style="fill:#ffffff;fill-opacity:1;fill-rule:nonzero;stroke:#000000;stroke-width:2.50601196;stroke-linecap:butt;stroke-linejoin:miter;stroke-miterlimit:10;stroke-dasharray:none;stroke-opacity:1"
           id="path150"
           inkscape:connector-curvature="0" /></g><path
         d="M 158.184,243.371 88.25,285.059"
         style="fill:#cd8282;fill-opacity:0.17884103;fill-rule:nonzero;stroke:none"
         id="path152"
         inkscape:connector-curvature="0" /><g
         id="g154"
         transform="matrix(1,-0.585873,-0.585873,-1,0,0)"><path
           d="m 6.763,-250.619 -68.482,-0.089"
           style="fill:none;stroke:#3e8213;stroke-width:2.08113003;stroke-linecap:butt;stroke-linejoin:round;stroke-miterlimit:10;stroke-dasharray:none;stroke-opacity:1"
           id="path156"
           inkscape:connector-curvature="0" /></g><path
         d="m 160.457,242.52 -12.168,2.578 4.332,2.316 -0.351,6.238"
         style="fill:#3e8214;fill-opacity:0.85882401;fill-rule:nonzero;stroke:none"
         id="path158"
         inkscape:connector-curvature="0" /><g
         id="g160"
         transform="matrix(1,-0.585873,-0.585873,-1,0,0)"><path
           d="m 73.56,-251.632 -52.165,0.351"
           style="fill:none;stroke:#000000;stroke-width:3.06280804;stroke-linecap:butt;stroke-linejoin:round;stroke-miterlimit:4;stroke-dasharray:3.062808, 6.125616;stroke-dashoffset:0;stroke-opacity:1"
           id="path162"
           inkscape:connector-curvature="0" /></g><g
         id="g164"
         transform="matrix(1,-0.585873,-0.585873,-1,0,0)"><path
           d="m 147.554,-251.163 -68.482,-0.089"
           style="fill:none;stroke:#000000;stroke-width:2.08113003;stroke-linecap:butt;stroke-linejoin:round;stroke-miterlimit:10;stroke-dasharray:none;stroke-opacity:0.98488698"
           id="path166"
           inkscape:connector-curvature="0" /></g><path
         d="m 301.57,160.578 -12.172,2.578 4.332,2.317 -0.347,6.234"
         style="fill:#000000;fill-opacity:1;fill-rule:nonzero;stroke:none"
         id="path168"
         inkscape:connector-curvature="0" /><g
         id="g170"
         transform="matrix(-1,0.585873,-0.585873,-1,0,0)"><path
           d="m -69.253,-251.675 c 0,2.445 -1.985,4.427 -4.428,4.429 -2.448,-0.001 -4.434,-1.985 -4.432,-4.429 -0.001,-2.445 1.983,-4.431 4.432,-4.43 2.443,-0.003 4.427,1.984 4.428,4.43 z"
           style="fill:#ffffff;fill-opacity:1;fill-rule:nonzero;stroke:#000000;stroke-width:2.50601196;stroke-linecap:butt;stroke-linejoin:miter;stroke-miterlimit:10;stroke-dasharray:none;stroke-opacity:1"
           id="path172"
           inkscape:connector-curvature="0" /></g><g
         id="g174"
         transform="matrix(1,-0.577527,-0.577527,-1,0,0)"><path
           d="m -94.226,-253.41 17.415,-0.093"
           style="fill:none;stroke:#000000;stroke-width:2.0886929;stroke-linecap:butt;stroke-linejoin:round;stroke-miterlimit:10;stroke-dasharray:none;stroke-opacity:0.98488698"
           id="path176"
           inkscape:connector-curvature="0" /></g><path
         d="m 76.059,293.48 -12.188,2.5 4.32,2.348 -0.394,6.231"
         style="fill:#000000;fill-opacity:1;fill-rule:nonzero;stroke:none"
         id="path178"
         inkscape:connector-curvature="0" /><g
         id="g180"
         transform="matrix(1,-0.577527,-0.577527,-1,0,0)"><path
           d="m 393.99,-249.844 17.415,-0.093"
           style="fill:none;stroke:#000000;stroke-width:2.0886929;stroke-linecap:butt;stroke-linejoin:round;stroke-miterlimit:10;stroke-dasharray:none;stroke-opacity:0.98488698"
           id="path182"
           inkscape:connector-curvature="0" /></g><path
         d="m 562.215,7.957 -12.188,2.496 4.321,2.352 -0.395,6.23"
         style="fill:#000000;fill-opacity:1;fill-rule:nonzero;stroke:none"
         id="path184"
         inkscape:connector-curvature="0" /><path
         d="m 418.457,138.59 c 0.137,-0.633 0.406,-1.715 0.406,-1.895 0,-0.496 -0.406,-0.765 -0.812,-0.765 -0.36,0 -0.856,0.226 -1.082,0.812 -0.09,0.18 -1.442,5.68 -1.621,6.446 -0.227,0.855 -0.27,1.351 -0.27,1.89 0,0.317 0,0.363 0.043,0.496 -0.676,1.535 -1.531,2.434 -2.656,2.434 -2.301,0 -2.301,-2.117 -2.301,-2.613 0,-0.903 0.137,-2.028 1.488,-5.59 0.317,-0.856 0.496,-1.262 0.496,-1.848 0,-1.262 -0.949,-2.344 -2.343,-2.344 -2.75,0 -3.789,4.192 -3.789,4.418 0,0.317 0.273,0.317 0.316,0.317 0.316,0 0.316,-0.09 0.453,-0.543 0.809,-2.66 1.891,-3.559 2.93,-3.559 0.269,0 0.719,0.043 0.719,0.945 0,0.723 -0.317,1.532 -0.539,2.028 -1.262,3.383 -1.579,4.687 -1.579,5.816 0,2.613 1.895,3.606 4.055,3.606 0.496,0 1.852,0 2.977,-2.028 0.765,1.848 2.75,2.028 3.605,2.028 2.164,0 3.426,-1.805 4.192,-3.516 0.949,-2.254 1.894,-6.129 1.894,-7.484 0,-1.575 -0.766,-2.028 -1.262,-2.028 -0.722,0 -1.441,0.766 -1.441,1.399 0,0.359 0.18,0.539 0.402,0.765 0.317,0.317 1.039,1.035 1.039,2.434 0,0.992 -0.812,3.785 -1.578,5.273 -0.722,1.532 -1.758,2.524 -3.156,2.524 -1.352,0 -2.117,-0.856 -2.117,-2.524 0,-0.765 0.179,-1.668 0.316,-2.074 z"
         style="fill:#000000;fill-opacity:1;fill-rule:nonzero;stroke:none"
         id="path186"
         inkscape:connector-curvature="0" /><path
         d="m 34.184,138.441 c 0,-0.316 -0.27,-0.316 -0.364,-0.316 -0.269,0 -0.312,0.137 -0.359,0.316 -0.902,2.84 -3.289,3.786 -4.508,3.786 -0.406,0 -0.765,-0.09 -0.765,-0.946 0,-0.676 0.226,-1.351 0.496,-2.117 1.308,-3.473 2.48,-8.34 2.48,-8.566 0,-0.496 -0.316,-0.766 -0.812,-0.766 -0.317,0 -0.856,0.18 -1.082,0.766 -0.18,0.543 -0.45,1.937 -0.633,2.48 -0.043,0.133 -0.766,2.66 -0.856,3.063 -0.09,0.273 -0.359,0.992 -0.406,1.265 -0.223,0.809 -0.898,2.16 -0.898,3.11 0,1.172 0.808,2.343 2.386,2.343 3.293,0 5.321,-3.472 5.321,-4.418 z"
         style="fill:#000000;fill-opacity:1;fill-rule:nonzero;stroke:none"
         id="path188"
         inkscape:connector-curvature="0" /><path
         d="m 697.031,136.867 c 0,-3.019 -1.984,-4.867 -4.597,-4.867 -3.832,0 -7.711,4.102 -7.711,8.16 0,2.84 1.941,4.867 4.597,4.867 3.832,0 7.711,-3.968 7.711,-8.16 z m -7.664,7.528 c -1.262,0 -2.523,-0.899 -2.523,-3.153 0,-1.398 0.765,-4.508 1.668,-5.953 1.441,-2.207 3.109,-2.656 3.922,-2.656 1.668,0 2.523,1.394 2.523,3.109 0,1.125 -0.586,4.145 -1.668,5.992 -1.039,1.668 -2.613,2.661 -3.922,2.661 z"
         style="fill:#000000;fill-opacity:1;fill-rule:nonzero;stroke:none"
         id="path190"
         inkscape:connector-curvature="0" /></g><g
       transform="matrix(2.420037,0,0,2.420037,75.373831,-290.09203)"
       ns1:version="0.11.0"
       ns1:texconverter="pdflatex"
       ns1:pdfconverter="pdf2svg"
       ns1:text="$q$"
       ns1:preamble="/home/doumane/.config/inkscape/extensions/textext/default_packages.tex"
       ns1:scale="1.81502772993"
       ns1:alignment="middle center"
       ns1:jacobian_sqrt="2.420037"
       id="g1095"><g
         id="surface1"><g
           style="fill:#000000;fill-opacity:1"
           id="g1092"><path
             inkscape:connector-curvature="0"
             style="stroke:none;stroke-width:0"
             d="m 4.5,-4.296875 c 0,-0.046875 -0.03125,-0.09375 -0.09375,-0.09375 -0.109375,0 -0.515625,0.390625 -0.671875,0.6875 C 3.515625,-4.25 3.125,-4.40625 2.796875,-4.40625 c -1.171875,0 -2.390625,1.46875 -2.390625,2.921875 0,0.96875 0.578125,1.59375 1.3125,1.59375 0.421875,0 0.8125,-0.234375 1.171875,-0.59375 -0.09375,0.34375 -0.421875,1.6875 -0.453125,1.78125 -0.078125,0.28125 -0.15625,0.3125 -0.71875,0.328125 -0.125,0 -0.21875,0 -0.21875,0.203125 0,0 0,0.109375 0.125,0.109375 0.3125,0 0.671875,-0.03125 1,-0.03125 0.328125,0 0.6875,0.03125 1.03125,0.03125 0.046875,0 0.171875,0 0.171875,-0.203125 C 3.828125,1.625 3.734375,1.625 3.5625,1.625 3.09375,1.625 3.09375,1.5625 3.09375,1.46875 3.09375,1.390625 3.109375,1.328125 3.125,1.25 Z m -2.75,4.1875 c -0.609375,0 -0.640625,-0.765625 -0.640625,-0.9375 0,-0.484375 0.28125,-1.5625 0.453125,-1.984375 0.3125,-0.734375 0.828125,-1.15625 1.234375,-1.15625 0.65625,0 0.796875,0.8125 0.796875,0.875 0,0.0625 -0.546875,2.25 -0.578125,2.28125 C 2.859375,-0.75 2.296875,-0.109375 1.75,-0.109375 Z m 0,0"
             transform="translate(148.712,134.765)"
             id="path1090" /></g></g></g><g
       id="g1323"
       ns1:jacobian_sqrt="2.420037"
       ns1:alignment="middle center"
       ns1:scale="1.81502772993"
       ns1:preamble="/home/doumane/.config/inkscape/extensions/textext/default_packages.tex"
       ns1:text="$r$"
       ns1:pdfconverter="pdf2svg"
       ns1:texconverter="pdflatex"
       ns1:version="0.11.0"
       transform="matrix(2.420037,0,0,2.420037,190.89075,-69.45586)"><g
         id="g1321"><g
           id="g1319"
           style="fill:#000000;fill-opacity:1"><path
             id="path1317"
             transform="translate(148.712,134.765)"
             d="m 0.875,-0.59375 c -0.03125,0.15625 -0.09375,0.390625 -0.09375,0.4375 0,0.171875 0.140625,0.265625 0.296875,0.265625 0.125,0 0.296875,-0.078125 0.375,-0.28125 C 1.46875,-0.203125 1.796875,-1.5625 1.84375,-1.75 c 0.078125,-0.328125 0.265625,-1.015625 0.3125,-1.296875 0.046875,-0.125 0.328125,-0.59375 0.5625,-0.8125 0.078125,-0.0625 0.375,-0.328125 0.796875,-0.328125 0.265625,0 0.40625,0.125 0.421875,0.125 -0.296875,0.046875 -0.515625,0.28125 -0.515625,0.546875 0,0.15625 0.109375,0.34375 0.375,0.34375 0.265625,0 0.546875,-0.234375 0.546875,-0.59375 0,-0.34375 -0.3125,-0.640625 -0.828125,-0.640625 C 2.875,-4.40625 2.4375,-3.921875 2.25,-3.640625 2.15625,-4.09375 1.796875,-4.40625 1.328125,-4.40625 0.875,-4.40625 0.6875,-4.015625 0.59375,-3.84375 0.421875,-3.5 0.296875,-2.90625 0.296875,-2.875 c 0,0.109375 0.09375,0.109375 0.109375,0.109375 0.109375,0 0.109375,-0.015625 0.171875,-0.234375 0.171875,-0.703125 0.375,-1.1875 0.734375,-1.1875 0.15625,0 0.296875,0.078125 0.296875,0.453125 0,0.21875 -0.03125,0.328125 -0.15625,0.84375 z m 0,0"
             style="stroke:none;stroke-width:0"
             inkscape:connector-curvature="0" /></g></g></g></g></svg>