<?xml version="1.0" encoding="UTF-8" standalone="no"?>
<!-- Created with Inkscape (http://www.inkscape.org/) -->

<svg
   xmlns:dc="http://purl.org/dc/elements/1.1/"
   xmlns:cc="http://creativecommons.org/ns#"
   xmlns:rdf="http://www.w3.org/1999/02/22-rdf-syntax-ns#"
   xmlns:svg="http://www.w3.org/2000/svg"
   xmlns="http://www.w3.org/2000/svg"
   xmlns:sodipodi="http://sodipodi.sourceforge.net/DTD/sodipodi-0.dtd"
   xmlns:inkscape="http://www.inkscape.org/namespaces/inkscape"
   version="1.1"
   id="svg2"
   xml:space="preserve"
   width="30.234667"
   height="19.874298"
   viewBox="0 0 30.234667 19.874298"
   sodipodi:docname="unary-letter.svg"
   inkscape:version="0.92.3 (2405546, 2018-03-11)"><metadata
     id="metadata8"><rdf:RDF><cc:Work
         rdf:about=""><dc:format>image/svg+xml</dc:format><dc:type
           rdf:resource="http://purl.org/dc/dcmitype/StillImage" /><dc:title></dc:title></cc:Work></rdf:RDF></metadata><defs
     id="defs6" /><sodipodi:namedview
     pagecolor="#ffffff"
     bordercolor="#666666"
     borderopacity="1"
     objecttolerance="10"
     gridtolerance="10"
     guidetolerance="10"
     inkscape:pageopacity="0"
     inkscape:pageshadow="2"
     inkscape:window-width="1853"
     inkscape:window-height="1025"
     id="namedview4"
     showgrid="false"
     inkscape:zoom="16.50714"
     inkscape:cx="15.11836"
     inkscape:cy="12.062371"
     inkscape:window-x="67"
     inkscape:window-y="27"
     inkscape:window-maximized="1"
     inkscape:current-layer="g10"
     fit-margin-top="0"
     fit-margin-left="0"
     fit-margin-right="0"
     fit-margin-bottom="0" /><g
     id="g10"
     inkscape:groupmode="layer"
     inkscape:label="unary-letter"
     transform="matrix(1.3333333,0,0,1.3333333,0,-4.2510345)"><path
       style="opacity:1;fill:#828282;fill-opacity:0.39215686;stroke:#000000;stroke-width:0.91650003;stroke-linejoin:round;stroke-miterlimit:4;stroke-dasharray:none;stroke-dashoffset:0;stroke-opacity:1"
       d="m 11.676766,15.868134 c -13.5465692,-14.3083614 12.721502,-15.30725373 0,0"
       id="path855"
       inkscape:connector-curvature="0"
       sodipodi:nodetypes="cc" /><g
       transform="scale(1,-1)"
       id="g14"><path
         inkscape:connector-curvature="0"
         id="path16"
         style="fill:#e6e6ff;fill-opacity:1;fill-rule:nonzero;stroke:#000000;stroke-width:0.79701;stroke-linecap:butt;stroke-linejoin:miter;stroke-miterlimit:10;stroke-dasharray:none;stroke-opacity:1"
         d="m 12.746,-16.023 c 0,0.781 -0.629,1.41 -1.406,1.41 -0.778,0 -1.41,-0.629 -1.41,-1.41 0,-0.778 0.632,-1.407 1.41,-1.407 0.777,0 1.406,0.629 1.406,1.407 z" /></g><g
       transform="scale(1,-1)"
       id="g18"><path
         inkscape:connector-curvature="0"
         id="path20"
         style="fill:none;stroke:#000000;stroke-width:0.79701;stroke-linecap:butt;stroke-linejoin:miter;stroke-miterlimit:10;stroke-dasharray:none;stroke-opacity:1"
         d="M 0,-16.023 H 6.941" /></g><path
       inkscape:connector-curvature="0"
       id="path22"
       style="fill:#000000;fill-opacity:1;fill-rule:nonzero;stroke:none"
       d="M 9.531,16.023 5.387,13.949 6.941,16.023 5.387,18.094" /><g
       transform="scale(1,-1)"
       id="g24"><path
         inkscape:connector-curvature="0"
         id="path26"
         style="fill:none;stroke:#000000;stroke-width:0.79701;stroke-linecap:butt;stroke-linejoin:miter;stroke-miterlimit:10;stroke-dasharray:none;stroke-opacity:1"
         d="m 13.145,-16.023 h 6.941" /></g><path
       inkscape:connector-curvature="0"
       id="path28"
       style="fill:#000000;fill-opacity:1;fill-rule:nonzero;stroke:none"
       d="m 22.676,16.023 -4.145,-2.074 1.555,2.074 -1.555,2.071" /><path
       inkscape:connector-curvature="0"
       id="path36"
       style="fill:#000000;fill-opacity:1;fill-rule:nonzero;stroke:none"
       d="m 20.906047,4.7806093 c -0.18,-0.356 -0.445,-0.61 -0.875,-0.61 -1.094,0 -2.262,1.391 -2.262,2.766 0,0.891 0.516,1.512 1.242,1.512 0.192,0 0.664,-0.047 1.227,-0.711 0.074,0.398 0.414,0.711 0.859,0.711 0.34,0 0.547,-0.223 0.707,-0.52 0.149,-0.34 0.282,-0.918 0.282,-0.929 0,-0.106 -0.086,-0.106 -0.118,-0.106 -0.089,0 -0.101,0.043 -0.132,0.176 -0.164,0.609 -0.325,1.172 -0.711,1.172 -0.266,0 -0.282,-0.254 -0.282,-0.43 0,-0.207 0.016,-0.297 0.122,-0.711 0.101,-0.383 0.117,-0.488 0.207,-0.844 l 0.339,-1.316 c 0.059,-0.266 0.059,-0.281 0.059,-0.324 0,-0.164 -0.105,-0.25 -0.266,-0.25 -0.238,0 -0.371,0.207 -0.398,0.414 z m -0.609,2.437 c -0.059,0.18 -0.059,0.196 -0.192,0.356 -0.414,0.519 -0.797,0.668 -1.066,0.668 -0.473,0 -0.606,-0.52 -0.606,-0.891 0,-0.473 0.297,-1.625 0.52,-2.07 0.293,-0.547 0.707,-0.903 1.094,-0.903 0.605,0 0.738,0.77 0.738,0.829 0,0.062 -0.016,0.121 -0.027,0.164 z" /></g></svg>